<?xml version="1.0" standalone="no"?>
<!DOCTYPE svg PUBLIC "-//W3C//DTD SVG 20010904//EN"
 "http://www.w3.org/TR/2001/REC-SVG-20010904/DTD/svg10.dtd">
<svg version="1.0" xmlns="http://www.w3.org/2000/svg"
 width="1096.000000pt" height="1280.000000pt" viewBox="0 0 1096.000000 1280.000000"
 preserveAspectRatio="xMidYMid meet">
<g transform="translate(0.000000,1280.000000) scale(0.100000,-0.100000)"
fill="#000000" stroke="none">
<path d="M3335 12776 c-209 -37 -343 -88 -500 -191 -298 -195 -496 -500 -551
-848 -23 -139 -15 -358 16 -486 128 -531 576 -918 1113 -960 638 -49 1194 364
1332 989 25 114 31 326 12 447 -42 260 -152 484 -332 672 -208 217 -426 328
-750 381 -148 25 -177 24 -340 -4z"/>
<path d="M9962 11648 c-891 -935 -942 -988 -942 -973 0 14 28 48 713 879 362
439 661 804 664 812 4 12 -16 34 -83 87 l-23 17 -1291 -1565 c-710 -861 -1295
-1565 -1299 -1565 -5 0 -37 13 -72 29 -91 42 -195 57 -286 42 -89 -16 -192
-64 -257 -122 -27 -24 -229 -259 -449 -521 -219 -263 -403 -478 -408 -478 -14
0 -24 27 -89 260 -89 316 -115 391 -185 535 -222 457 -620 794 -1100 929 -218
62 -164 59 -1309 63 -1019 4 -1051 3 -1162 -17 -517 -92 -1032 -486 -1276
-975 -44 -88 -59 -136 -153 -480 -42 -154 -126 -460 -186 -680 -61 -220 -137
-497 -169 -615 -32 -118 -109 -397 -170 -620 -192 -699 -210 -765 -210 -772 0
-5 245 -8 545 -8 428 0 546 3 550 13 2 6 24 86 49 177 72 265 343 1252 387
1408 21 78 57 206 78 285 22 78 63 228 92 332 28 105 56 198 61 208 8 15 25
17 139 17 106 0 131 -3 135 -15 5 -13 -107 -439 -406 -1545 -179 -663 -233
-870 -228 -875 2 -3 880 -4 1950 -3 l1945 3 -142 495 c-79 272 -236 816 -349
1209 -113 393 -203 718 -200 722 3 5 68 9 144 9 123 0 140 -2 148 -17 6 -10
50 -148 100 -308 50 -159 134 -427 187 -595 101 -323 144 -427 218 -527 46
-61 123 -130 180 -159 133 -69 314 -56 453 34 86 56 145 119 380 402 116 140
434 524 706 853 279 336 509 623 527 656 79 149 80 341 1 469 -11 18 -20 37
-20 42 0 6 680 724 1511 1597 832 874 1528 1605 1548 1626 l35 37 -49 50 c-27
28 -52 50 -56 50 -4 0 -398 -411 -877 -912z"/>
<path d="M0 5490 l0 -280 3398 2 3397 3 3 278 2 277 -3400 0 -3400 0 0 -280z"/>
<path d="M420 2560 l0 -2560 3020 0 3020 0 0 2560 0 2560 -3020 0 -3020 0 0
-2560z"/>
</g>
</svg>
